HIERARCHY
ROOT joint_Root
{
	OFFSET 0.0 0.0 0.0
	CHANNELS 6 Xposition Yposition Zposition Zrotation Xrotation Yrotation 
	JOINT Hips
	{
		OFFSET -0.726466 93.3139 -2.00062
		CHANNELS 6 Xposition Yposition Zposition Zrotation Xrotation Yrotation 
		JOINT Spine
		{
			OFFSET 15.7357 0.0 0.0
			CHANNELS 6 Xposition Yposition Zposition Zrotation Xrotation Yrotation 
			JOINT Chest
			{
				OFFSET 8.98455 -0.406207 0.0
				CHANNELS 6 Xposition Yposition Zposition Zrotation Xrotation Yrotation 
				JOINT Neck
				{
					OFFSET 16.3773 0.0 0.0
					CHANNELS 6 Xposition Yposition Zposition Zrotation Xrotation Yrotation 
					JOINT Head
					{
						OFFSET 6.45672 0.0 0.0
						CHANNELS 6 Xposition Yposition Zposition Zrotation Xrotation Yrotation 
						End Site
						{
							OFFSET 0.0 0.0 0.0
						}
					}
				}
				JOINT Shoulder_L
				{
					OFFSET 12.9942 -0.242716 4.98039
					CHANNELS 6 Xposition Yposition Zposition Zrotation Xrotation Yrotation 
					JOINT UpperArm_L
					{
						OFFSET 5.34809 0.0 0.0
						CHANNELS 6 Xposition Yposition Zposition Zrotation Xrotation Yrotation 
						JOINT LowerArm_L
						{
							OFFSET 24.3286 1.87007e-05 0.0
							CHANNELS 6 Xposition Yposition Zposition Zrotation Xrotation Yrotation 
							JOINT Hand_L
							{
								OFFSET 22.2916 0.0 0.0
								CHANNELS 6 Xposition Yposition Zposition Zrotation Xrotation Yrotation 
								End Site
								{
									OFFSET 0.0 0.0 0.0
								}
							}
						}
					}
				}
				JOINT Shoulder_R
				{
					OFFSET 12.9945 -0.242716 -4.98039
					CHANNELS 6 Xposition Yposition Zposition Zrotation Xrotation Yrotation 
					JOINT UpperArm_R
					{
						OFFSET -5.34813 0.0 0.0
						CHANNELS 6 Xposition Yposition Zposition Zrotation Xrotation Yrotation 
						JOINT LowerArm_R
						{
							OFFSET -24.3289 0.000322201 0.0
							CHANNELS 6 Xposition Yposition Zposition Zrotation Xrotation Yrotation 
							JOINT Hand_R
							{
								OFFSET -22.2915 -0.000108084 0.0
								CHANNELS 6 Xposition Yposition Zposition Zrotation Xrotation Yrotation 
								End Site
								{
									OFFSET 0.0 0.0 0.0
								}
							}
						}
					}
				}
			}
		}
		JOINT UpperLeg_L
		{
			OFFSET -2.19248 -6.46944 0.0
			CHANNELS 6 Xposition Yposition Zposition Zrotation Xrotation Yrotation 
			JOINT LowerLeg_L
			{
				OFFSET 39.0811 0.0 -1.23785e-05
				CHANNELS 6 Xposition Yposition Zposition Zrotation Xrotation Yrotation 
				JOINT Foot_L
				{
					OFFSET 40.9854 0.0 -1.26872e-05
					CHANNELS 6 Xposition Yposition Zposition Zrotation Xrotation Yrotation 
					JOINT Toes_L
					{
						OFFSET 11.7543 0.0 0.0
						CHANNELS 6 Xposition Yposition Zposition Zrotation Xrotation Yrotation 
						End Site
						{
							OFFSET 0.0 0.0 0.0
						}
					}
				}
			}
		}
		JOINT UpperLeg_R
		{
			OFFSET -2.19251 6.46944 0.0
			CHANNELS 6 Xposition Yposition Zposition Zrotation Xrotation Yrotation 
			JOINT LowerLeg_R
			{
				OFFSET -39.0811 -0.00228153 -0.0401928
				CHANNELS 6 Xposition Yposition Zposition Zrotation Xrotation Yrotation 
				JOINT Foot_R
				{
					OFFSET -40.9854 0.0 0.0
					CHANNELS 6 Xposition Yposition Zposition Zrotation Xrotation Yrotation 
					JOINT Toes_R
					{
						OFFSET -11.7543 0.0 0.0
						CHANNELS 6 Xposition Yposition Zposition Zrotation Xrotation Yrotation 
						End Site
						{
							OFFSET 0.0 0.0 0.0
						}
					}
				}
			}
		}
	}
}
MOTION
Frames:	8
Frame Time:	0.0333333
0.000000 0.000000 0.000000 0.000000 0.000000 -0.000000 -0.847247 92.256900 -1.751810 87.993200 -2.613930 5.280980 15.735700 0.000005 -0.000001 77.417500 86.927800 -76.965300 8.984550 -0.406207 -0.000000 -1.763820 -1.375800 0.883030 16.377300 -0.000001 -0.000001 -0.012605 -0.824631 0.708034 6.456720 -0.000001 -0.000000 -0.966347 -0.410441 -0.233660 12.994200 -0.242716 4.980390 -84.013200 -12.087000 -63.397200 5.348090 -0.000007 -0.000001 -65.624500 -58.621400 -96.263400 24.328600 0.000019 0.000005 2.223530 1.016120 -65.452200 22.291600 -0.000001 0.000005 19.642400 5.639700 -14.102100 12.994500 -0.242716 -4.980390 92.974200 -6.624520 -65.754500 -5.348130 -0.000001 -0.000004 -50.835900 -58.710200 -98.455300 -24.328900 0.000322 -0.000009 1.955210 1.463900 -53.208200 -22.291500 -0.000108 -0.000004 22.924100 5.604460 -11.612200 -2.192480 -6.469440 -0.000000 -169.773000 -20.193300 -1.620830 39.081100 -0.000007 -0.000012 -0.135883 0.331243 22.304600 40.985400 -0.000006 -0.000013 -5.216660 -0.878177 -63.138000 11.754300 -0.000000 0.000003 -0.000146 -0.001416 -16.631400 -2.192510 6.469440 -0.000001 174.145000 22.955600 179.852000 -39.081100 -0.002282 -0.040193 0.021528 -0.048462 20.591200 -40.985400 0.000008 0.000006 -0.547476 4.604320 -62.651600 -11.754300 -0.000006 -0.000006 -0.004500 -0.056547 -18.873600
0.000000 0.000000 0.000000 0.000000 0.000000 -0.000000 -0.864982 92.258200 -1.786420 87.986500 -2.602540 5.263410 15.735700 0.000005 -0.000001 77.194900 86.902700 -76.739600 8.984550 -0.406207 -0.000000 -1.719970 -1.410280 0.889223 16.377300 -0.000001 -0.000001 0.037758 -0.864179 0.711955 6.456720 -0.000001 -0.000000 -0.888048 -0.459180 -0.192829 12.994200 -0.242716 4.980390 -84.016600 -12.068300 -63.375000 5.348090 -0.000007 -0.000001 -65.429900 -58.769600 -95.844100 24.328600 0.000019 0.000005 2.300480 1.042050 -65.643200 22.291600 -0.000001 0.000005 19.607600 5.639330 -14.070200 12.994500 -0.242716 -4.980390 92.963400 -6.583270 -65.699200 -5.348130 -0.000001 -0.000004 -50.556800 -58.753400 -98.090500 -24.328900 0.000322 -0.000009 1.935300 1.438830 -53.401300 -22.291500 -0.000108 -0.000004 22.944800 5.604120 -11.591400 -2.192480 -6.469440 -0.000000 -169.790000 -20.154000 -1.684450 39.081100 -0.000007 -0.000012 -0.133773 0.325844 22.320400 40.985400 -0.000006 -0.000013 -5.213830 -0.908465 -63.118400 11.754300 -0.000000 0.000003 -0.000154 -0.001487 -16.634000 -2.192510 6.469440 -0.000001 174.169000 23.043600 179.815000 -39.081100 -0.002282 -0.040193 0.022090 -0.049961 20.590700 -40.985400 0.000008 0.000006 -0.461809 4.669930 -62.661600 -11.754300 -0.000006 -0.000006 -0.004519 -0.056729 -18.881000
0.000000 0.000000 0.000000 0.000000 0.000000 -0.000000 -0.874902 92.262400 -1.832560 87.995900 -2.584850 5.230990 15.735700 0.000005 -0.000001 77.267300 86.892100 -76.816300 8.984550 -0.406207 -0.000000 -1.697580 -1.406890 0.881130 16.377300 -0.000001 -0.000001 0.121387 -0.934393 0.720007 6.456720 -0.000001 -0.000000 -0.720867 -0.578113 -0.175365 12.994200 -0.242716 4.980390 -84.052300 -12.036600 -63.453900 5.348090 -0.000007 -0.000001 -64.527200 -58.950600 -94.612100 24.328600 0.000019 0.000005 2.061930 0.916961 -66.035400 22.291600 -0.000001 0.000005 19.495100 5.639510 -14.085500 12.994500 -0.242716 -4.980390 92.929500 -6.516880 -65.729700 -5.348130 -0.000001 -0.000004 -49.954800 -58.868400 -97.185900 -24.328900 0.000322 -0.000009 1.927600 1.406930 -53.904600 -22.291500 -0.000108 -0.000004 22.710200 5.603590 -11.558900 -2.192480 -6.469440 -0.000000 -169.798000 -20.188400 -1.733990 39.081100 -0.000007 -0.000012 -0.135046 0.329494 22.286900 40.985400 -0.000006 -0.000013 -5.208980 -0.861572 -63.064100 11.754300 -0.000000 0.000003 -0.000139 -0.001365 -16.629500 -2.192510 6.469440 -0.000001 174.199000 22.986400 179.767000 -39.081100 -0.002282 -0.040193 0.021102 -0.047430 20.551100 -40.985400 0.000008 0.000006 -0.554812 4.608860 -62.624600 -11.754300 -0.000006 -0.000006 -0.004451 -0.056053 -18.853500
0.000000 0.000000 0.000000 0.000000 0.000000 -0.000000 -0.888202 92.264000 -1.873790 87.995300 -2.536180 5.228870 15.735700 0.000005 -0.000001 77.261800 86.854600 -76.817400 8.984550 -0.406207 -0.000000 -1.624450 -1.423210 0.868481 16.377300 -0.000001 -0.000001 0.164804 -0.971580 0.726700 6.456720 -0.000001 -0.000000 -0.581403 -0.632264 -0.161819 12.994200 -0.242716 4.980390 -84.092300 -11.978400 -63.500200 5.348090 -0.000007 -0.000001 -62.914700 -59.090600 -92.455500 24.328600 0.000019 0.000005 1.701360 0.729347 -66.804700 22.291600 -0.000001 0.000005 19.292600 5.637000 -13.878500 12.994500 -0.242716 -4.980390 92.893900 -6.435590 -65.724200 -5.348130 -0.000001 -0.000004 -49.178400 -58.825200 -95.731800 -24.328900 0.000322 -0.000009 2.028010 1.424720 -54.941700 -22.291500 -0.000108 -0.000004 22.225800 5.595510 -11.073400 -2.192480 -6.469440 -0.000000 -169.815000 -20.193100 -1.796370 39.081100 -0.000007 -0.000012 -0.132123 0.322069 22.305200 40.985400 -0.000006 -0.000013 -5.187430 -0.832153 -63.029300 11.754300 -0.000000 0.000003 -0.000152 -0.001467 -16.633300 -2.192510 6.469440 -0.000001 174.215000 23.041000 179.746000 -39.081100 -0.002282 -0.040193 0.021325 -0.048019 20.553700 -40.985400 0.000008 0.000006 -0.545754 4.607050 -62.616500 -11.754300 -0.000006 -0.000006 -0.004639 -0.057933 -18.930000
0.000000 0.000000 0.000000 0.000000 0.000000 -0.000000 -0.903386 92.272300 -1.926870 87.998700 -2.450530 5.217650 15.735700 0.000005 -0.000001 77.619400 86.809900 -77.189600 8.984550 -0.406207 -0.000000 -1.528900 -1.402490 0.840597 16.377300 -0.000001 -0.000001 0.223621 -0.991510 0.680510 6.456720 -0.000001 -0.000000 -0.555738 -0.721522 -0.110589 12.994200 -0.242716 4.980390 -84.105900 -12.014600 -63.620900 5.348090 -0.000007 -0.000001 -60.716500 -59.038400 -89.091100 24.328600 0.000019 0.000005 0.907891 0.362850 -68.241800 22.291600 -0.000001 0.000005 18.759200 5.635650 -13.768900 12.994500 -0.242716 -4.980390 92.820800 -6.269630 -65.716000 -5.348130 -0.000001 -0.000004 -47.533000 -58.774500 -93.006400 -24.328900 0.000322 -0.000009 2.157080 1.416330 -56.735700 -22.291500 -0.000108 -0.000004 21.566200 5.584390 -10.447500 -2.192480 -6.469440 -0.000000 -169.826000 -20.150000 -1.841380 39.081100 -0.000007 -0.000012 -0.131987 0.322578 22.252600 40.985400 -0.000006 -0.000013 -5.177470 -0.779871 -62.953200 11.754300 -0.000000 0.000003 -0.000147 -0.001426 -16.631800 -2.192510 6.469440 -0.000001 174.230000 23.086700 179.708000 -39.081100 -0.002282 -0.040193 0.019841 -0.044092 20.540000 -40.985400 0.000008 0.000006 -0.634279 4.577550 -62.535100 -11.754300 -0.000006 -0.000006 -0.004550 -0.057043 -18.893800
0.000000 0.000000 0.000000 0.000000 0.000000 -0.000000 -0.906826 92.266000 -1.977850 88.023200 -2.401730 5.228590 15.735700 0.000005 -0.000001 78.354800 86.765300 -77.934600 8.984550 -0.406207 -0.000000 -1.424930 -1.339240 0.823389 16.377300 -0.000001 -0.000001 0.280679 -0.967069 0.646240 6.456720 -0.000001 -0.000000 -0.523477 -0.744214 -0.170264 12.994200 -0.242716 4.980390 -84.111800 -12.107900 -63.817600 5.348090 -0.000007 -0.000001 -57.458100 -58.669900 -83.873200 24.328600 0.000019 0.000005 -0.885359 -0.308869 -70.703800 22.291600 -0.000001 0.000005 17.928100 5.633980 -13.638800 12.994500 -0.242716 -4.980390 92.709500 -6.007000 -65.666200 -5.348130 -0.000001 -0.000004 -44.379000 -58.482700 -88.529900 -24.328900 0.000322 -0.000009 3.757750 2.218000 -59.488700 -22.291500 -0.000108 -0.000004 21.864800 5.567140 -9.545620 -2.192480 -6.469440 -0.000000 -169.861000 -20.146400 -1.912950 39.081100 -0.000007 -0.000012 -0.132253 0.322365 22.306500 40.985400 -0.000006 -0.000013 -5.154880 -0.737542 -62.932700 11.754300 -0.000000 0.000003 -0.000150 -0.001450 -16.632700 -2.192510 6.469440 -0.000001 174.219000 23.062600 179.664000 -39.081100 -0.002282 -0.040193 0.020067 -0.044586 20.586300 -40.985400 0.000008 0.000006 -0.645461 4.518160 -62.567600 -11.754300 -0.000006 -0.000006 -0.004659 -0.058125 -18.937900
0.000000 0.000000 0.000000 0.000000 0.000000 -0.000000 -0.918208 92.270700 -2.047610 88.060000 -2.287230 5.197590 15.735700 0.000005 -0.000001 78.356500 86.717500 -77.975000 8.984550 -0.406207 -0.000000 -1.331580 -1.354950 0.747044 16.377300 -0.000001 -0.000001 0.246765 -0.953631 0.725738 6.456720 -0.000001 -0.000000 -0.372792 -0.622672 -0.166471 12.994200 -0.242716 4.980390 -84.167300 -12.131300 -64.075900 5.348090 -0.000007 -0.000001 -52.686100 -57.940400 -76.825100 24.328600 0.000019 0.000005 -3.611850 -1.036270 -73.987300 22.291600 -0.000001 0.000005 16.733200 5.631430 -13.445300 12.994500 -0.242716 -4.980390 92.590500 -5.729180 -65.618700 -5.348130 -0.000001 -0.000004 -40.496000 -57.502400 -82.533200 -24.328900 0.000322 -0.000009 5.163240 2.579530 -63.527000 -22.291500 -0.000108 -0.000004 22.054400 5.555120 -8.950260 -2.192480 -6.469440 -0.000000 -169.925000 -20.108500 -2.001020 39.081100 -0.000007 -0.000012 -0.131669 0.321570 22.267200 40.985400 -0.000006 -0.000013 -5.133080 -0.682088 -62.854100 11.754300 -0.000000 0.000003 -0.000145 -0.001415 -16.631400 -2.192510 6.469440 -0.000001 174.216000 23.124100 179.586000 -39.081100 -0.002282 -0.040193 0.019254 -0.042366 20.611800 -40.985400 0.000008 0.000006 -0.700873 4.464850 -62.537400 -11.754300 -0.000006 -0.000006 -0.004736 -0.058889 -18.969000
0.000000 0.000000 0.000000 0.000000 0.000000 -0.000000 -0.925437 92.259000 -2.108340 88.085600 -2.215420 5.239830 15.735700 0.000005 -0.000001 78.710600 86.630900 -78.357900 8.984550 -0.406207 -0.000000 -1.154040 -1.346270 0.691480 16.377300 -0.000001 -0.000001 0.253649 -0.900937 0.732693 6.456720 -0.000001 -0.000000 -0.386661 -0.569346 -0.141758 12.994200 -0.242716 4.980390 -84.286700 -12.014900 -64.330100 5.348090 -0.000007 -0.000001 -48.049500 -56.286900 -69.342100 24.328600 0.000019 0.000005 -6.087830 -1.289940 -78.066100 22.291600 -0.000001 0.000005 15.251300 5.628700 -13.236500 12.994500 -0.242716 -4.980390 92.438700 -5.426260 -65.754800 -5.348130 -0.000001 -0.000004 -35.814100 -55.970100 -75.145700 -24.328900 0.000322 -0.000009 5.362580 2.097300 -68.710900 -22.291500 -0.000108 -0.000004 21.175000 5.536150 -8.061300 -2.192480 -6.469440 -0.000000 -169.946000 -20.161600 -2.076140 39.081100 -0.000007 -0.000012 -0.130348 0.316750 22.368200 40.985400 -0.000006 -0.000013 -5.096640 -0.591439 -62.837500 11.754300 -0.000000 0.000003 -0.000145 -0.001411 -16.631200 -2.192510 6.469440 -0.000001 174.181000 23.106000 179.586000 -39.081100 -0.002282 -0.040193 0.017797 -0.038421 20.646200 -40.985400 0.000008 0.000006 -0.854659 4.424040 -62.564800 -11.754300 -0.000006 -0.000006 -0.004730 -0.058826 -18.966400
